<svg width="16" height="14" fill="none" xmlns="http://www.w3.org/2000/svg"><path fill-rule="evenodd" clip-rule="evenodd" d="M5.366.228a.763.763 0 0 1 0 1.1L1.93 4.667l3.435 3.339a.763.763 0 0 1 0 1.1.816.816 0 0 1-1.132 0l-4-3.89a.763.763 0 0 1 0-1.1l4-3.888a.816.816 0 0 1 1.132 0Z" /><path fill-rule="evenodd" clip-rule="evenodd" d="M0 4.666a.79.79 0 0 1 .8-.777h6.4c4.86 0 8.8 3.83 8.8 8.555v.778a.79.79 0 0 1-.8.778.79.79 0 0 1-.8-.778v-.778c0-3.866-3.223-7-7.2-7H.8a.79.79 0 0 1-.8-.778Z" /></svg>