<svg width="120" height="120" viewBox="0 0 120 120" fill="none" xmlns="http://www.w3.org/2000/svg">
<circle cx="60" cy="60" r="60" fill="#D4D4D4"/>
<path d="M60.001 25C47.3459 25 37.001 35.3449 37.001 48C37.001 60.6551 47.3459 71 60.001 71C72.6561 71 83.001 60.6551 83.001 48C83.001 35.3449 72.6561 25 60.001 25Z" fill="white"/>
<path d="M104.808 90.4081C104.124 88.8774 103.212 87.4489 102.186 86.1224C96.9419 79.1835 88.8483 74.5917 79.7285 73.4692C78.5887 73.3673 77.3347 73.5712 76.4226 74.1835C71.6348 77.3468 65.935 78.9794 60.0071 78.9794C54.0791 78.9794 48.3794 77.3468 43.5915 74.1835C42.6794 73.5712 41.4254 73.2651 40.2856 73.4692C31.1658 74.5917 22.9581 79.1835 17.8283 86.1224C16.8024 87.4489 15.8903 88.9796 15.2065 90.4081C14.8646 91.0204 14.9785 91.7347 15.3204 92.347C16.2324 93.7755 17.3723 95.2042 18.3983 96.4286C19.9941 98.3675 21.7042 100.102 23.6422 101.735C25.2381 103.163 27.062 104.49 28.8861 105.816C37.8917 111.837 48.7215 115 59.8932 115C71.0648 115 81.8946 111.837 90.9002 105.816C92.7241 104.592 94.548 103.163 96.1441 101.735C97.968 100.102 99.7919 98.3673 101.388 96.4286C102.528 95.1021 103.554 93.7755 104.466 92.347C105.036 91.7347 105.15 91.0202 104.808 90.4081Z" fill="white"/>
</svg>
