<svg width="16" height="16" fill="none" xmlns="http://www.w3.org/2000/svg"><path fill-rule="evenodd" clip-rule="evenodd" d="M5.834 1.668a.842.842 0 0 1 .566-.213h3.2c.212 0 .416.076.566.213.15.136.234.32.234.514v.727H5.6v-.727c0-.193.084-.378.234-.514ZM12 2.182v.727h3.2c.442 0 .8.326.8.727 0 .402-.358.728-.8.728h-.8v9.454c0 .579-.253 1.134-.703 1.543-.45.41-1.06.639-1.697.639H4c-.636 0-1.247-.23-1.697-.639a2.086 2.086 0 0 1-.703-1.543V4.364H.8c-.442 0-.8-.326-.8-.728 0-.401.358-.727.8-.727H4v-.727c0-.579.253-1.134.703-1.543C5.153.229 5.763 0 6.4 0h3.2c.637 0 1.247.23 1.697.639.45.41.703.964.703 1.543ZM3.2 4.364v9.454c0 .193.084.378.234.514.15.137.354.213.566.213h8a.842.842 0 0 0 .566-.213.695.695 0 0 0 .234-.514V4.364H3.2Z" fill="#fff"/></svg>