<svg width="16" height="16" viewBox="0 0 16 16" fill="none" xmlns="http://www.w3.org/2000/svg">
<path d="M15.5934 7.44421C15.9622 7.06941 16.0924 6.51942 15.9332 6.00876C15.7741 5.49811 15.3586 5.13295 14.8489 5.05573L10.96 4.46662C10.9529 4.46555 10.9468 4.46088 10.9436 4.45422L9.20455 0.780677C8.97666 0.299183 8.51507 0 7.99996 0C7.48486 0 7.02334 0.299183 6.79545 0.780677L5.0563 4.45422C5.05315 4.46088 5.04705 4.46547 5.03993 4.46662L1.15108 5.05573C0.641404 5.13295 0.225926 5.49811 0.0667538 6.00876C-0.0924184 6.51942 0.0378268 7.06941 0.40661 7.44421L3.22061 10.3037C3.22575 10.3089 3.2281 10.3164 3.22685 10.3238L2.56256 14.3615C2.47548 14.8906 2.68032 15.4155 3.09697 15.731C3.5137 16.0467 4.05575 16.0875 4.51161 15.8376L7.98991 13.9313C7.99622 13.9278 8.00385 13.9279 8.01017 13.9313L11.4885 15.8376C11.6868 15.9463 11.9013 16 12.1148 16C12.3921 16 12.6676 15.9094 12.903 15.731C13.3197 15.4155 13.5244 14.8906 13.4374 14.3614L12.7731 10.3238C12.7719 10.3164 12.7743 10.3089 12.7794 10.3037L15.5934 7.44421ZM11.4705 10.5566L12.1348 14.5942C12.1366 14.6049 12.1371 14.6081 12.1262 14.6164C12.1152 14.6247 12.1125 14.6232 12.1033 14.6181L8.6249 12.7117C8.23358 12.4973 7.76627 12.4973 7.3748 12.7117L3.89651 14.618C3.88733 14.623 3.88454 14.6246 3.8736 14.6163C3.86266 14.6081 3.86317 14.6049 3.86494 14.5942L4.52923 10.5565C4.60397 10.1022 4.45956 9.63891 4.1429 9.31707L1.32905 6.45765C1.32163 6.45008 1.31935 6.44786 1.32354 6.43446C1.32772 6.42107 1.33081 6.42061 1.34109 6.419L5.22994 5.8299C5.66759 5.76362 6.0457 5.47729 6.24136 5.06391L7.98051 1.39029C7.98513 1.38065 7.98645 1.37767 7.99996 1.37767C8.01347 1.37767 8.01487 1.38065 8.01942 1.39029L9.75857 5.06391C9.9543 5.47729 10.3323 5.76369 10.77 5.8299L14.6588 6.419C14.6691 6.42061 14.6722 6.42107 14.6764 6.43446C14.6806 6.44786 14.6783 6.45015 14.6709 6.45765L11.8569 9.31715C11.5403 9.63891 11.3959 10.1023 11.4705 10.5566Z"/>
</svg>
