<svg width="14" height="14" viewBox="0 0 14 14" fill="none" xmlns="http://www.w3.org/2000/svg">
<path d="M5.59964 3.45941e-08C4.70837 0.000127638 3.83001 0.21297 3.03754 0.620837C2.24507 1.0287 1.56139 1.61982 1.04332 2.34505C0.525249 3.07028 0.187747 3.90869 0.058865 4.79059C-0.0700174 5.67249 0.0134416 6.57242 0.302306 7.41558C0.591171 8.25873 1.0771 9.02078 1.7197 9.63837C2.36231 10.256 3.14303 10.7113 3.99699 10.9664C4.85095 11.2216 5.75348 11.2693 6.62957 11.1055C7.50566 10.9417 8.33001 10.5712 9.03412 10.0248L12.8046 13.7967C12.9361 13.928 13.1143 14.0016 13.3 14.0015C13.4858 14.0014 13.6639 13.9274 13.7952 13.796C13.9265 13.6645 14.0001 13.4863 14 13.3006C13.9999 13.1148 13.9259 12.9367 13.7945 12.8054L10.024 9.03492C10.6667 8.20707 11.0642 7.21549 11.1714 6.17293C11.2785 5.13036 11.0909 4.07866 10.63 3.1374C10.1691 2.19615 9.45329 1.40311 8.56402 0.848485C7.67475 0.293855 6.6477 -0.000116434 5.59964 3.45941e-08ZM1.39931 5.60044C1.39931 4.48645 1.84184 3.41808 2.62956 2.63036C3.41727 1.84265 4.48565 1.40011 5.59964 1.40011C6.71364 1.40011 7.78201 1.84265 8.56973 2.63036C9.35744 3.41808 9.79998 4.48645 9.79998 5.60044C9.79998 6.71444 9.35744 7.78281 8.56973 8.57053C7.78201 9.35824 6.71364 9.80078 5.59964 9.80078C4.48565 9.80078 3.41727 9.35824 2.62956 8.57053C1.84184 7.78281 1.39931 6.71444 1.39931 5.60044Z"  fill-opacity="0.3"/>
</svg>
