<svg width="20" height="20" viewBox="0 0 20 20" fill="none" xmlns="http://www.w3.org/2000/svg">
<path fill-rule="evenodd" clip-rule="evenodd" d="M16.737 1.05273C16.737 0.50045 16.2893 0.0527344 15.737 0.0527344C15.1847 0.0527344 14.737 0.50045 14.737 1.05273V6.00694L13.2862 4.55615C12.8957 4.16563 12.2625 4.16563 11.872 4.55615C11.4815 4.94668 11.4815 5.57984 11.872 5.97037L15.0299 9.12826L15.737 9.83537L16.4441 9.12826L19.602 5.97037C19.9925 5.57984 19.9925 4.94668 19.602 4.55615C19.2115 4.16563 18.5783 4.16563 18.1878 4.55615L16.737 6.00694V1.05273ZM3 5.21063C2.44771 5.21063 2 5.65834 2 6.21063V12.3227L3.79629 10.5264C4.57734 9.74537 5.84367 9.74537 6.62471 10.5264L9.42103 13.3227L11.1647 11.5791C11.9458 10.798 13.2121 10.798 13.9931 11.5791L14.7368 12.3228V11.5791C14.7368 11.0268 15.1846 10.5791 15.7368 10.5791C16.2891 10.5791 16.7368 11.0268 16.7368 11.5791V16.9475C16.7368 18.6043 15.3937 19.9475 13.7368 19.9475H3C1.34314 19.9475 0 18.6043 0 16.9475V6.21063C0 4.55377 1.34315 3.21063 3 3.21063H8.36842C8.92071 3.21063 9.36842 3.65834 9.36842 4.21063C9.36842 4.76291 8.92071 5.21063 8.36842 5.21063H3ZM2 16.9475V15.1511L5.2105 11.9406L8.71392 15.4441L11.2173 17.9475H3C2.44772 17.9475 2 17.4998 2 16.9475ZM14.7368 16.9475C14.7368 17.4056 14.4287 17.7918 14.0084 17.9101L10.8352 14.7369L12.5789 12.9933L14.7368 15.1512V16.9475Z" fill="white"/>
</svg>
