<svg width="22" height="22" fill="none" xmlns="http://www.w3.org/2000/svg"><circle cx="11" cy="11" r="11" fill="#000"/><path fill-rule="evenodd" clip-rule="evenodd" d="M8.526 5.036C9.166 5.006 9.37 5 11 5c1.63 0 1.834.007 2.473.036.64.029 1.076.13 1.457.279.4.15.763.387 1.063.692.306.3.541.662.692 1.062.148.382.25.819.279 1.457.03.64.036.845.036 2.474 0 1.63-.007 1.834-.036 2.474-.029.638-.13 1.074-.28 1.456-.15.4-.386.763-.69 1.063-.3.306-.664.541-1.063.692-.382.148-.819.25-1.457.279-.64.03-.844.036-2.474.036-1.63 0-1.834-.007-2.474-.036-.638-.029-1.074-.13-1.456-.28-.4-.15-.763-.386-1.063-.69a2.94 2.94 0 0 1-.692-1.063c-.148-.382-.25-.819-.279-1.457C5.006 12.834 5 12.63 5 11c0-1.63.007-1.834.036-2.473.029-.64.13-1.076.279-1.458.15-.4.387-.762.692-1.062.3-.305.662-.541 1.062-.692.382-.148.819-.25 1.457-.279Zm4.899 1.08c-.633-.029-.823-.035-2.425-.035-1.602 0-1.792.006-2.425.035-.585.027-.902.124-1.114.207-.28.109-.48.238-.69.448-.199.194-.352.43-.448.69-.083.212-.18.53-.207 1.114-.029.633-.035.823-.035 2.425 0 1.602.006 1.792.035 2.425.027.585.124.902.207 1.114.096.26.249.496.448.69.194.199.43.352.69.448.212.083.53.18 1.114.207.633.029.822.035 2.425.035 1.602 0 1.792-.006 2.425-.035.585-.027.902-.124 1.114-.207.28-.109.48-.238.69-.448.199-.194.352-.43.448-.69.083-.212.18-.53.207-1.114.029-.633.035-.823.035-2.425 0-1.602-.006-1.792-.035-2.425-.027-.585-.124-.902-.207-1.114-.109-.28-.238-.48-.448-.69a1.862 1.862 0 0 0-.69-.448c-.212-.083-.53-.18-1.114-.207Zm-3.191 6.734a2.002 2.002 0 1 0-.263-3.566 2.002 2.002 0 0 0 .263 3.566ZM8.819 8.82a3.084 3.084 0 1 1 4.362 4.361A3.084 3.084 0 0 1 8.819 8.82Zm5.949-.445a.729.729 0 1 0-1-1.06.729.729 0 0 0 1 1.06Z" fill="#fff"/></svg>