<svg width="13" height="14" viewBox="0 0 13 14" fill="none" xmlns="http://www.w3.org/2000/svg">
<path d="M11.375 14H1.625C0.729444 14 0 13.4114 0 12.6875V6.5625C0 5.83858 0.729444 5.25 1.625 5.25H11.375C12.2706 5.25 13 5.83858 13 6.5625V12.6875C13 13.4114 12.2706 14 11.375 14ZM1.625 6.125C1.32672 6.125 1.08333 6.321 1.08333 6.5625V12.6875C1.08333 12.929 1.32672 13.125 1.625 13.125H11.375C11.6733 13.125 11.9167 12.929 11.9167 12.6875V6.5625C11.9167 6.321 11.6733 6.125 11.375 6.125H1.625Z"  fill-opacity="0.3"/>
<path d="M10.2915 6.125C9.9925 6.125 9.74984 5.929 9.74984 5.6875V3.5C9.74984 2.05275 8.29167 0.875 6.49984 0.875C4.708 0.875 3.24984 2.05275 3.24984 3.5V5.6875C3.24984 5.929 3.00717 6.125 2.70817 6.125C2.40917 6.125 2.1665 5.929 2.1665 5.6875V3.5C2.1665 1.56975 4.11 0 6.49984 0C8.88967 0 10.8332 1.56975 10.8332 3.5V5.6875C10.8332 5.929 10.5905 6.125 10.2915 6.125Z"  fill-opacity="0.3"/>
<path d="M6.50011 9.91671C5.7035 9.91671 5.05566 9.39346 5.05566 8.75004C5.05566 8.10662 5.7035 7.58337 6.50011 7.58337C7.29672 7.58337 7.94455 8.10662 7.94455 8.75004C7.94455 9.39346 7.29672 9.91671 6.50011 9.91671ZM6.50011 8.45837C6.3015 8.45837 6.139 8.58904 6.139 8.75004C6.139 8.91104 6.3015 9.04171 6.50011 9.04171C6.69872 9.04171 6.86122 8.91104 6.86122 8.75004C6.86122 8.58904 6.69872 8.45837 6.50011 8.45837Z"  fill-opacity="0.3"/>
<path d="M6.50016 11.6667C6.20116 11.6667 5.9585 11.4707 5.9585 11.2292V9.625C5.9585 9.3835 6.20116 9.1875 6.50016 9.1875C6.79916 9.1875 7.04183 9.3835 7.04183 9.625V11.2292C7.04183 11.4707 6.79916 11.6667 6.50016 11.6667Z"  fill-opacity="0.3"/>
</svg>
