<svg viewBox="0 0 110 110" fill="none" xmlns="http://www.w3.org/2000/svg">
<path d="M0 98.4021C0 104.808 5.21455 110 11.5979 110H98.4021C104.808 110 110 104.785 110 98.4021V11.5979C110 5.19207 104.785 0 98.4021 0H11.5979C5.19207 0 0 5.21455 0 11.5979V98.4021ZM98.4021 104.493H11.5979C8.24888 104.493 5.50674 101.751 5.50674 98.4021V83.9048L26.3649 63.0466L44.1888 80.8705C45.2677 81.9493 46.9984 81.9493 48.0772 80.8705L80.2636 48.6841L104.493 72.9138V98.4021C104.493 101.751 101.751 104.493 98.4021 104.493ZM11.5979 5.50674H98.4021C101.751 5.50674 104.493 8.24888 104.493 11.5979V65.1144L82.1966 42.8402C81.1177 41.7613 79.387 41.7613 78.3081 42.8402L46.1218 75.0266L28.2979 57.2027C27.219 56.1238 25.4884 56.1238 24.4095 57.2027L5.50674 76.1054V11.5979C5.50674 8.24888 8.24888 5.50674 11.5979 5.50674Z"  fill-opacity="0.3"/>
<path d="M34.0966 44.076C41.8285 44.076 48.0995 37.7826 48.0995 30.0732C48.0995 22.3637 41.8061 16.0703 34.0966 16.0703C26.3872 16.0703 20.0938 22.3637 20.0938 30.0732C20.0938 37.7826 26.3647 44.076 34.0966 44.076ZM34.0966 21.5771C38.7942 21.5771 42.5927 25.3981 42.5927 30.0732C42.5927 34.7483 38.7717 38.5693 34.0966 38.5693C29.4215 38.5693 25.6005 34.7483 25.6005 30.0732C25.6005 25.3981 29.399 21.5771 34.0966 21.5771Z"  fill-opacity="0.4"/>
</svg>
