<svg width="16" height="16" fill="none" xmlns="http://www.w3.org/2000/svg">
<path d="M15.622 9.106a.56.56 0 0 0-.47.102 5.993 5.993 0 0 1-1.82 1.067c-.634.246-1.33.37-2.066.37A6.002 6.002 0 0 1 7.014 8.88a6.045 6.045 0 0 1-1.758-4.268c0-.698.123-1.375.327-1.99A5.515 5.515 0 0 1 6.564.857a.525.525
 0 0 0-.082-.739.56.56 0 0 0-.47-.102 8.25 8.25 0 0 0-4.335 2.913A8.145 8.145 0 0 0 0 7.874c0 2.237.9 4.268 2.372 5.746A8.053 8.053 0 0 0 8.097 16c1.881 0 3.62-.657 
 5.01-1.744a8.094 8.094 0 0 0 2.862-4.494c.103-.308-.06-.595-.347-.656Zm-3.129 4.288a6.972 6.972 0 0 1-4.355 1.518c-1.942 0-3.7-.8-4.969-2.072a7.054 7.054 
 0 0 1-2.065-4.986c0-1.621.532-3.098 1.452-4.288a7.036 7.036 0 0 1 2.351-1.97 7.1 7.1 0 0 0-.286.697 6.85 6.85 0 0 0-.388 2.34c0 1.949.797 3.734 2.065 5.006a7.052 7.052 0 0 0 4.989 2.072c.859 
 0 1.677-.143 2.433-.43.266-.103.532-.206.777-.329a7.459 7.459 0 0 1-2.004 2.442Z" 
 />
</svg>