<svg width="22" height="22" fill="none" xmlns="http://www.w3.org/2000/svg"><path d="M11 0C4.925 0 0 4.925 0 11s4.925 11 11 11 11-4.925 11-11S17.075 0 11 0Zm4.23 12.41s.973.96 1.213 1.406c.007.01.01.019.012.023.098.164.12.291.073.386-.08.159-.356.237-.45.243H14.36c-.12 0-.37-.03-.672-.239-.232-.163-.462-.43-.685-.69-.334-.387-.622-.722-.913-.722a.347.347 0 0 0-.11.018c-.22.07-.501.384-.501 1.22 0 .262-.206.412-.352.412h-.787c-.268 0-1.665-.094-2.902-1.399-1.515-1.598-2.879-4.804-2.89-4.834-.086-.207.091-.319.285-.319H6.57c.232 0 .307.141.36.266.062.146.289.724.661 1.375.604 1.061.974 1.492 1.27 1.492.056 0 .111-.015.16-.041.387-.216.315-1.596.298-1.883 0-.054-.001-.617-.2-.888-.142-.196-.383-.27-.53-.298a.63.63 0 0 1 .228-.193c.266-.133.745-.153 1.22-.153h.265c.516.007.649.04.835.087.379.09.387.335.353 1.17-.01.237-.02.506-.02.822 0 .069-.004.142-.004.22-.011.425-.025.907.275 1.106.04.024.085.037.13.037.105 0 .42 0 1.27-1.458.261-.47.49-.958.681-1.46.017-.03.068-.122.127-.157a.305.305 0 0 1 .142-.033h2.041c.222 0 .375.033.403.119.05.136-.009.552-.94 1.814l-.416.549c-.845 1.107-.845 1.163.052 2.003Z" fill="#fff"/></svg>